<?xml version="1.0" encoding="UTF-8" standalone="no"?>
<svg
   xmlns:dc="http://purl.org/dc/elements/1.1/"
   xmlns:cc="http://creativecommons.org/ns#"
   xmlns:rdf="http://www.w3.org/1999/02/22-rdf-syntax-ns#"
   xmlns:svg="http://www.w3.org/2000/svg"
   xmlns="http://www.w3.org/2000/svg"
   xmlns:sodipodi="http://sodipodi.sourceforge.net/DTD/sodipodi-0.dtd"
   xmlns:inkscape="http://www.inkscape.org/namespaces/inkscape"
   version="1.0"
   width="300.000000pt"
   height="300.000000pt"
   viewBox="0 0 300.000000 300.000000"
   preserveAspectRatio="xMidYMid meet"
   id="svg8"
   sodipodi:docname="galactus.svg"
   inkscape:version="0.92.2 2405546, 2018-03-11">
  <defs
     id="defs12" />
  <sodipodi:namedview
     pagecolor="#ffffff"
     bordercolor="#666666"
     borderopacity="1"
     objecttolerance="10"
     gridtolerance="10"
     guidetolerance="10"
     inkscape:pageopacity="0"
     inkscape:pageshadow="2"
     inkscape:window-width="1916"
     inkscape:window-height="1002"
     id="namedview10"
     showgrid="false"
     inkscape:zoom="0.834386"
     inkscape:cx="59.335609"
     inkscape:cy="200.54057"
     inkscape:window-x="1920"
     inkscape:window-y="46"
     inkscape:window-maximized="0"
     inkscape:current-layer="svg8" />
  <metadata
     id="metadata2">
Created by potrace 1.15, written by Peter Selinger 2001-2017
<rdf:RDF>
  <cc:Work
     rdf:about="">
    <dc:format>image/svg+xml</dc:format>
    <dc:type
       rdf:resource="http://purl.org/dc/dcmitype/StillImage" />
    <dc:title></dc:title>
  </cc:Work>
</rdf:RDF>
</metadata>
  <g
     transform="translate(0.000000,300.000000) scale(0.100000,-0.100000)"
     fill="#000000"
     stroke="none"
     id="g6"
     style="fill:#800000">
    <path
       d="M587 2531 l-107 -220 -36 -3 -36 -3 -140 -268 -140 -268 311 -467 311 -467 136 -68 c112 -56 135 -71 129 -85 -4 -9 -10 -38 -12 -64 l-5 -46 157 -154 c156 -152 157 -153 214 -161 31 -5 115 -6 186 -3 l130 5 115 119 c63 65 127 127 142 136 15 9 35 31 44 48 14 27 15 40 5 82 -6 27 -8 53 -4 57 5 3 62 35 128 69 66 34 127 69 136 78 9 10 152 220 318 469 l301 452 -28 53 c-16 29 -80 151 -142 271 l-112 217 -35 0 -34 0 -106 215 c-58 119 -107 214 -110 212 -2 -3 -14 -89 -27 -193 l-23 -189 72 -140 c40 -77 105 -203 145 -280 l73 -140 -201 -303 -202 -302 -53 0 c-49 0 -55 3 -66 28 -26 55 -22 141 28 588 28 248 51 463 51 478 0 25 -12 33 -142 96 -85 42 -150 68 -160 64 -10 -3 -28 2 -40 10 -12 9 -40 16 -63 16 -36 0 -46 7 -117 77 l-78 78 -78 -78 c-74 -74 -79 -77 -127 -78 -35 -2 -54 -8 -63 -20 -10 -15 -17 -16 -30 -8 -14 9 -47 -4 -165 -62 l-147 -72 5 -31 c3 -17 28 -240 56 -495 42 -391 48 -472 39 -514 -14 -69 -24 -77 -84 -77 l-51 0 -180 272 c-99 149 -188 286 -199 303 l-19 33 143 278 143 277 -23 196 c-12 108 -23 197 -25 199 -1 1 -50 -97 -108 -217z m1029 -1781 l101 -42 62 31 61 31 0 -53 c0 -131 -4 -139 -101 -222 -49 -41 -91 -75 -94 -75 -3 0 -16 11 -28 25 -20 22 -30 25 -115 26 -89 2 -94 1 -122 -26 l-29 -28 -78 66 c-113 94 -110 89 -115 195 -2 50 -3 92 -1 92 1 0 31 -14 65 -31 l63 -31 105 46 c58 25 110 44 115 42 6 -2 56 -23 111 -46z"
       id="path4"
       style="fill:#800000" />
  </g>
</svg>
